<svg id="Logo" xmlns="http://www.w3.org/2000/svg" viewBox="0 0 36.3 17.23"><defs><style>.cls-1{fill:#f0280a;}</style></defs><path class="cls-1" d="M5,7.69a2.23,2.23,0,0,0,1.66-.62,2.58,2.58,0,0,0,.63-1.92,3,3,0,0,0-.55-2,2.24,2.24,0,0,0-1.83-.67H3.43V7.69ZM6,0A5,5,0,0,1,8.2.44,4,4,0,0,1,9.65,1.6a4.56,4.56,0,0,1,.78,1.63,7.32,7.32,0,0,1,.24,1.87,6.12,6.12,0,0,1-.39,2.28A4.12,4.12,0,0,1,9.18,9a4.66,4.66,0,0,1-1.7.93,7.73,7.73,0,0,1-2.22.31H3.43V17H0V0Z"/><rect class="cls-1" x="11.43" width="3.29" height="17.01"/><path class="cls-1" d="M21.34,11a3.88,3.88,0,0,1-.69.22,2.54,2.54,0,0,0-1.43.72,2,2,0,0,0-.43,1.36,2.61,2.61,0,0,0,.29,1.26,1,1,0,0,0,1,.52,2.16,2.16,0,0,0,.69-.11,1.81,1.81,0,0,0,1.15-1,2.09,2.09,0,0,0,.19-.9V10.6a3.47,3.47,0,0,1-.72.42M16.05,7.81a4.33,4.33,0,0,1,.36-1.87,3.23,3.23,0,0,1,1-1.21,3.89,3.89,0,0,1,1.42-.67,7.65,7.65,0,0,1,1.76-.2,8.2,8.2,0,0,1,2.38.28,3.32,3.32,0,0,1,1.4.81A2.68,2.68,0,0,1,25,6.21a6.53,6.53,0,0,1,.18,1.58v6.74a10.11,10.11,0,0,0,.08,1.41A5.17,5.17,0,0,0,25.61,17H22.46a3.09,3.09,0,0,1-.25-.66c-.05-.23-.11-.45-.15-.68h0A2.78,2.78,0,0,1,20.69,17a5.3,5.3,0,0,1-1.94.3,3.22,3.22,0,0,1-1.46-.3,2.45,2.45,0,0,1-.95-.82A3.6,3.6,0,0,1,15.82,15a4.89,4.89,0,0,1-.17-1.3,5.55,5.55,0,0,1,.19-1.56A3.14,3.14,0,0,1,16.42,11a3.25,3.25,0,0,1,1-.77,8,8,0,0,1,1.47-.55l1.86-.5a2,2,0,0,0,1-.52,1.49,1.49,0,0,0,.29-1,1.74,1.74,0,0,0-.35-1.15,1.45,1.45,0,0,0-1.18-.42,1.4,1.4,0,0,0-1.14.45A1.8,1.8,0,0,0,19,7.77v.35h-3Z"/><path class="cls-1" d="M29.73,4.19v1.5h0A3.32,3.32,0,0,1,31.13,4.3,4,4,0,0,1,33,3.86a3.2,3.2,0,0,1,2.41.86A3.82,3.82,0,0,1,36.3,7.5V17H33V8.17a2.19,2.19,0,0,0-.33-1.39,1.3,1.3,0,0,0-1.07-.4c-1.16,0-1.74.71-1.74,2.12V17H26.58V4.19Z"/></svg>