<?xml version="1.0" standalone="no"?>
<!DOCTYPE svg PUBLIC "-//W3C//DTD SVG 20010904//EN"
 "http://www.w3.org/TR/2001/REC-SVG-20010904/DTD/svg10.dtd">
<svg version="1.0" xmlns="http://www.w3.org/2000/svg"
 width="1088.000000pt" height="1088.000000pt" viewBox="0 0 1088.000000 1088.000000"
 preserveAspectRatio="xMidYMid meet">
<metadata>
Created by potrace 1.14, written by Peter Selinger 2001-2017
</metadata>
<g transform="translate(0.000000,1088.000000) scale(0.100000,-0.100000)"
fill="#000000" stroke="none">
<path d="M2030 5445 c0 -4341 3 -5435 13 -5436 6 -1 499 -2 1094 -3 714 -1
1084 2 1086 9 2 6 3 977 3 2159 -1 1424 2 2150 9 2152 6 2 352 5 770 7 418 3
789 8 825 12 36 5 89 9 117 9 29 1 53 3 53 6 0 3 12 7 28 8 39 3 174 22 203
28 13 3 41 7 61 9 20 2 41 6 45 8 5 3 27 8 49 11 52 8 65 11 149 31 39 9 77
18 85 20 145 33 442 132 544 181 27 13 55 24 62 24 7 0 14 3 16 8 2 4 37 24
78 44 115 57 300 167 345 205 6 5 31 23 57 41 25 18 52 38 60 45 7 7 20 18 29
23 45 25 227 199 303 288 22 27 46 54 52 60 20 21 110 141 144 191 18 28 38
53 43 56 4 3 9 13 11 22 1 9 9 24 17 34 34 39 209 382 209 408 0 2 5 16 12 32
6 15 12 33 14 38 2 6 18 55 38 110 32 95 92 299 101 347 3 13 7 34 10 48 3 14
8 36 11 50 3 14 7 35 10 48 2 12 6 32 9 45 14 73 20 108 30 197 4 30 9 66 11
80 20 117 26 694 10 885 -5 55 -10 116 -11 135 -2 19 -6 54 -9 76 -4 23 -9 59
-11 79 -3 21 -7 50 -10 64 -2 14 -7 42 -10 61 -3 19 -10 58 -15 85 -5 28 -12
61 -14 75 -21 120 -112 455 -146 535 -21 50 -45 121 -42 128 1 4 -1 7 -6 7 -4
0 -13 15 -20 33 -22 54 -114 242 -121 247 -3 3 -15 23 -26 45 -29 57 -149 238
-209 315 -106 135 -226 258 -386 394 -73 62 -282 205 -345 236 -16 8 -32 18
-35 21 -4 5 -150 76 -245 120 -26 11 -217 80 -230 83 -5 1 -16 5 -22 9 -7 5
-13 6 -13 2 0 -3 -9 -1 -21 5 -11 6 -28 13 -37 15 -9 2 -46 11 -82 20 -66 17
-82 21 -122 30 -13 2 -36 8 -53 11 -16 4 -39 8 -50 10 -11 2 -31 5 -44 8 -14
3 -59 10 -100 15 -42 6 -96 14 -121 18 -25 4 -993 8 -2152 10 l-2108 4 0
-5436z m3500 3841 c14 -4 36 -8 50 -10 44 -7 149 -36 223 -62 67 -24 216 -92
227 -104 3 -3 21 -14 40 -24 19 -11 37 -22 40 -26 3 -3 28 -22 55 -40 46 -31
71 -52 150 -127 74 -69 213 -322 274 -497 80 -226 116 -440 112 -661 -2 -144
-2 -150 -1 -290 1 -66 -1 -136 -4 -155 -3 -19 -8 -53 -10 -75 -3 -22 -10 -62
-16 -90 -5 -27 -13 -61 -15 -75 -11 -50 -79 -245 -90 -252 -5 -4 -7 -8 -3 -8
12 0 -74 -163 -129 -243 -29 -43 -53 -81 -53 -83 0 -6 -47 -60 -95 -110 -56
-57 -168 -145 -237 -185 -41 -24 -194 -100 -234 -116 -44 -18 -197 -61 -241
-68 -21 -3 -50 -8 -63 -12 -18 -4 -504 -15 -635 -14 -8 0 -266 1 -330 1 -11 0
-87 0 -170 1 l-150 1 0 1664 c0 1436 2 1664 14 1666 32 6 1268 0 1291 -6z"/>
</g>
</svg>
